<svg width="40" height="48" viewBox="0 0 40 48" fill="none" xmlns="http://www.w3.org/2000/svg">
<path d="M20 39C30.4934 39 39 30.4934 39 20C39 9.50659 30.4934 1 20 1C9.50659 1 1 9.50659 1 20C1 30.4934 9.50659 39 20 39Z" fill="#F3933D"/>
<path fill-rule="evenodd" clip-rule="evenodd" d="M28.9841 17.47C28.9461 17.3544 28.8453 17.2701 28.7238 17.2525L22.8953 16.413L20.2888 11.1782C20.2346 11.069 20.1225 11 20.0001 11C19.8777 11 19.7652 11.069 19.7114 11.1782L17.1045 16.4133L11.276 17.2528C11.1546 17.2704 11.0541 17.3544 11.0157 17.4703C10.978 17.5856 11.0093 17.7127 11.0972 17.7973L15.3151 21.8722L14.3192 27.6262C14.2985 27.746 14.3482 27.867 14.4471 27.9385C14.5466 28.0107 14.6784 28.02 14.7863 27.9628L20.0001 25.2464L25.2132 27.9628C25.2602 27.9874 25.3121 27.9995 25.3633 27.9995C25.43 27.9995 25.4964 27.9791 25.5528 27.9385C25.652 27.867 25.7016 27.746 25.6807 27.6262L24.6851 21.8725L28.9029 17.7973C28.9906 17.7121 29.0222 17.5853 28.9841 17.47Z" fill="white"/>
<path fill-rule="evenodd" clip-rule="evenodd" d="M0 19.63C0 8.79 8.956 0 20 0C31.044 0 40 8.79 40 19.63C40 30.5197 31.4402 38.0011 20.3678 47.6785C20.2455 47.7854 20.1229 47.8926 20 48C19.8771 47.8926 19.7545 47.7854 19.6322 47.6785C8.55985 38.0011 0 30.5197 0 19.63ZM4 20C4 28.836 11.162 36 20 36C28.838 36 36 28.836 36 20C36 11.164 28.838 4 20 4C11.162 4 4 11.164 4 20Z" fill="white"/>
</svg>
